<?xml version="1.0" encoding="UTF-8" standalone="no"?>
<!--part of the rodentia icon theme by sixsixfive released under CC0 (https://creativecommons.org/publicdomain/zero/1.0/) on openclipart-->
<svg xmlns="http://www.w3.org/2000/svg" xmlns:xlink="http://www.w3.org/1999/xlink" viewBox="0 0 48 48">
 <defs id="0">
  <linearGradient id="6">
   <stop id="I" stop-color="#fff" stop-opacity="0.8"/>
   <stop id="J" offset="1" stop-color="#fff" stop-opacity="0"/>
  </linearGradient>
  <linearGradient id="7">
   <stop id="K" stop-color="#2e3436"/>
   <stop id="L" offset="1" stop-color="#2e3436" stop-opacity="0"/>
  </linearGradient>
  <linearGradient id="8">
   <stop id="M" stop-color="#fff"/>
   <stop id="N" offset="1" stop-color="#fff" stop-opacity="0"/>
  </linearGradient>
  <radialGradient cx="60.05" cy="51.39" r="15.03" id="9" xlink:href="#A" gradientUnits="userSpaceOnUse" gradientTransform="matrix(-1.404511,1.1888571,-1,-1.1813958,199.73811,11.750541)"/>
  <linearGradient id="A">
   <stop id="O" stop-color="#eee"/>
   <stop id="P" offset="1" stop-color="#dcdcdc"/>
  </linearGradient>
  <linearGradient id="B">
   <stop id="Q" stop-color="#eeeeec"/>
   <stop id="R" offset="1" stop-color="#d3d7cf"/>
  </linearGradient>
  <linearGradient y1="7.625" x2="0" y2="37.38" id="C" xlink:href="#B" gradientUnits="userSpaceOnUse" gradientTransform="matrix(0.8466866,0,0,0.8466866,3.3572231,0.5669307)"/>
  <linearGradient x1="7.629" y1="-33.549" x2="16.462" y2="26.06" id="D" xlink:href="#8" gradientUnits="userSpaceOnUse" gradientTransform="translate(0,-0.800291)"/>
  <linearGradient y1="3.125" x2="0" y2="41.751" id="E" xlink:href="#6" gradientUnits="userSpaceOnUse"/>
  <radialGradient cx="22.681" cy="44.4" r="16.622" id="F" xlink:href="#7" gradientUnits="userSpaceOnUse" gradientTransform="matrix(1.3891626,0,0,0.2311085,-7.5073714,25.896997)"/>
 </defs>
 <path d="M 47.090239,36.157583 C 47.090239,38.279139 36.752387,39.999 24,39.999 11.247613,39.999 0.90976094,38.279139 0.90976094,36.157583 0.90976094,34.036028 11.247613,32.316167 24,32.316167 c 12.752387,0 23.090239,1.719861 23.090239,3.841416 z" id="1" opacity="0.348" fill="url(#F)"/>
 <path d="m 7.321489,2.5479179 c -1.6237192,0 -2.910986,1.5344757 -2.910986,3.4008261 l 0,26.767792 c 0,1.866351 1.2872668,3.345975 2.910986,3.345975 l 21.426756,0 c 1.297859,1.961521 3.823497,5.141861 9.878261,7.788989 -2.695721,-3.641391 -2.689977,-6.114275 -2.386053,-7.788989 l 4.390339,0 c 1.623716,0 2.958702,-1.479624 2.958705,-3.345975 l 0,-26.767792 c 0,-1.86635 -1.334989,-3.4008261 -2.958705,-3.4008261 l -33.309303,0 0,0 z" id="2" fill="#75507b" display="block" stroke="#44274c"/>
 <path d="m 7.3125,3.625 c -0.9660374,10e-8 -1.84375,0.9325713 -1.84375,2.3125 l 0,26.78125 C 5.4687501,34.098678 6.3328395,35 7.3125,35 L 28.75,35 c 0.351242,0.0019 0.678811,0.1774 0.875,0.46875 0.983275,1.486074 2.739088,3.667534 6.3125,5.78125 C 34.995337,38.99134 34.986254,37.156124 35.21875,35.875 35.3083,35.373835 35.740942,35.006745 36.25,35 l 4.375,0 c 0.979658,0 1.906248,-0.925023 1.90625,-2.28125 l 0,-26.78125 c 0,-1.3562226 -0.940217,-2.3125 -1.90625,-2.3125 l -33.3125,0 0,0 z" id="3" opacity="0.8" fill="none" display="block" stroke="url(#E)"/>
 <g transform="translate(0.3222983,-0.4176596)" id="4">
  <path d="m 24.1875,6.34375 c -3.955481,2.99e-5 -7.252468,0.5987564 -9.75,2.03125 -1.083843,0.6174002 -1.904813,1.2017026 -2.625,1.84375 -0.0057,0.0051 -0.02553,-0.0051 -0.03125,0 a 1.2731391,1.2731391 0 0 0 -0.3125,0.21875 c -0.01836,0.01789 -0.04439,0.04449 -0.0625,0.0625 A 1.2731391,1.2731391 0 0 0 11.375,10.53125 c -0.86247,0.890482 -1.312501,2.032146 -1.3125,3.15625 -3e-6,1.426339 0.869751,2.773827 2.21875,3.53125 a 1.2731391,1.2731391 0 0 0 0.0625,0 1.2731391,1.2731391 0 0 0 0.0625,0.03125 1.2731391,1.2731391 0 0 0 0.5,0.125 c 0.0092,0.0041 0.02202,-0.0041 0.03125,0 0.989736,0.436762 2.028099,0.781278 3.15625,0.78125 1.281361,2.8e-5 2.510439,-0.187413 3.625,-0.65625 1.268351,-0.533468 2.437476,-1.5608 2.4375,-3.09375 -1.2e-5,-0.634572 -0.262838,-1.251289 -0.625,-1.8125 a 1.2731391,1.2731391 0 0 0 0,-0.03125 A 1.2731391,1.2731391 0 0 0 21.5,12.46875 c 0.537743,-0.230433 1.156718,-0.374982 2.09375,-0.375 0.574603,1.2e-5 0.764509,0.01393 1.40625,0.71875 0.623513,0.684855 0.843738,1.31562 0.84375,2.21875 -1.2e-5,0.690944 -0.15302,1.049929 -0.375,1.34375 -0.263731,0.349082 -0.840194,0.872796 -1.6875,1.40625 -0.0093,0.0058 -0.02189,-0.0059 -0.03125,0 a 1.2731391,1.2731391 0 0 0 -0.09375,0.09375 1.2731391,1.2731391 0 0 0 -0.0625,0.03125 c -1.127821,0.715394 -2.105212,1.448043 -2.90625,2.25 -0.811554,0.795563 -1.429718,1.661471 -1.8125,2.59375 a 1.2731391,1.2731391 0 0 0 0,0.0625 1.2731391,1.2731391 0 0 0 -0.0625,0.15625 1.2731391,1.2731391 0 0 0 -0.03125,0.15625 c -0.194444,0.541465 -0.376961,1.041916 -0.46875,1.5 a 1.2731391,1.2731391 0 0 0 -0.03125,0.25 l 0,0.03125 c -0.06151,0.436747 -0.125009,0.927481 -0.125,1.53125 l 0,1.0625 c -1.4e-5,0.751765 0.259746,1.766561 1,2.46875 0.01121,0.01063 0.01983,0.02077 0.03125,0.03125 a 1.2731391,1.2731391 0 0 0 0.09375,0.0625 c 0.330253,0.279787 0.702499,0.359484 1.0625,0.5 -0.266569,0.133948 -0.571115,0.208856 -0.8125,0.375 -1.096387,0.75463 -1.937521,1.920178 -1.9375,3.28125 -1.5e-5,1.155963 0.679107,2.104228 1.53125,2.84375 a 1.2731391,1.2731391 0 0 0 0,0.03125 1.2731391,1.2731391 0 0 0 0.40625,0.40625 1.2731391,1.2731391 0 0 0 0,0.03125 c 1.124856,0.751468 2.519263,1.124999 3.96875,1.125 1.44003,-10e-7 2.841727,-0.37211 3.96875,-1.125 1.141839,-0.76282 1.968712,-1.938941 1.96875,-3.3125 -3.2e-5,-1.371726 -0.831196,-2.552534 -1.96875,-3.3125 -0.475074,-0.326979 -1.004982,-0.529326 -1.5625,-0.71875 0.06958,-0.04956 0.150796,-0.03764 0.21875,-0.09375 0.01192,-0.0098 0.01938,-0.0212 0.03125,-0.03125 0.846967,-0.689507 1.187481,-1.775747 1.1875,-2.5625 l 0,-1 c -10e-6,-0.501847 0.07102,-0.912301 0.1875,-1.25 0.0028,-0.0083 -0.0029,-0.0231 0,-0.03125 0.118339,-0.295628 0.235176,-0.426716 0.40625,-0.59375 0.367084,-0.348913 0.673251,-0.628229 0.8125,-0.71875 0.21336,-0.138693 0.612989,-0.329637 1.09375,-0.5625 a 1.2731391,1.2731391 0 0 0 0,-0.03125 c 0.813606,-0.409748 1.486958,-0.723638 2,-1 0.51854,-0.282546 1.062409,-0.674103 1.65625,-1.0625 0.01597,-0.01044 0.04642,0.01051 0.0625,0 a 1.2731391,1.2731391 0 0 0 0.28125,-0.15625 c 0.814376,-0.544955 1.45925,-1.097968 2,-1.65625 0.540087,-0.55761 0.99882,-1.190468 1.375,-1.90625 l 0.03125,0 c 0.004,-0.0077 -0.004,-0.02352 0,-0.03125 0.456077,-0.835098 0.687462,-1.741758 0.6875,-2.625 -2.9e-5,-2.62552 -1.572114,-4.9383924 -4.15625,-6.40625 -2.558552,-1.4847385 -5.799939,-2.1249696 -9.59375,-2.125 z" transform="matrix(0.8466866,0,0,0.8466866,3.3572231,0.5669307)" id="G" fill="#5c3566"/>
  <path d="m 23.836454,7.0229159 c -3.239331,2.43e-5 -5.866763,0.4946793 -7.726015,1.5610784 -1.01913,0.5805372 -1.791628,1.1068302 -2.328388,1.6404557 l -0.02646,0 c -0.548477,0.56629 -0.79377,1.231556 -0.793769,1.931503 -1e-6,0.789246 0.459572,1.55258 1.322948,2.03734 l 0.02646,0 c 0.785393,0.426796 1.712539,0.661498 2.672354,0.661474 0.976007,2.1e-5 1.865244,-0.147882 2.645896,-0.476261 0.8162,-0.343294 1.402314,-0.963538 1.402325,-1.613997 -10e-6,-0.473308 -0.163202,-0.895123 -0.52918,-1.270029 l 0.02646,-0.02646 c -0.189927,-0.22058 -0.264592,-0.418537 -0.264589,-0.608556 -3e-6,-0.258676 0.109968,-0.413524 0.714392,-0.687933 l 0.02646,0 c 0.624104,-0.2863633 1.365155,-0.449784 2.328388,-0.4498026 0.722306,1.52e-5 1.308892,0.2370544 1.984421,0.9789816 0.685612,0.753063 1.005427,1.597473 1.005441,2.592978 -1.4e-5,0.760808 -0.186156,1.345169 -0.529179,1.799209 -0.360254,0.476841 -0.963424,0.998058 -1.852127,1.534618 l -0.02646,0 c -0.90352,0.573116 -1.67009,1.166676 -2.27547,1.77275 -0.608208,0.596223 -1.041358,1.204286 -1.296489,1.825668 l 0,0.02646 c -0.207855,0.548402 -0.347251,0.996117 -0.423344,1.375866 l 0,0.02646 c -0.0556,0.369898 -0.105843,0.794074 -0.105835,1.296488 l 0,0.899605 c -10e-6,0.513387 0.09483,0.924372 0.529179,1.322948 l 0.02646,0.02646 c 0.573752,0.486076 1.359582,0.555645 2.222552,0.555638 0.877004,6e-6 1.640721,-0.06276 2.222552,-0.555638 0.498872,-0.392428 0.608543,-0.823707 0.608556,-1.349407 l 0,-0.846687 c -1.1e-5,-0.55629 0.09364,-1.047525 0.238131,-1.455242 0.159753,-0.409857 0.35802,-0.684645 0.608556,-0.926064 0.327131,-0.310938 0.610811,-0.561057 0.846686,-0.714391 0.255205,-0.165894 0.608109,-0.35037 1.0319,-0.555639 0.693943,-0.349483 1.265389,-0.630396 1.666914,-0.846686 0.440794,-0.240184 0.942903,-0.577133 1.561078,-0.978981 l 0.02646,0 c 0.641594,-0.429335 1.143423,-0.839692 1.534619,-1.243571 0.392616,-0.405354 0.73097,-0.873388 1.005441,-1.402324 0.310045,-0.560198 0.449777,-1.135451 0.449802,-1.719832 -2e-5,-1.822298 -1.016214,-3.3919682 -2.963403,-4.4980228 C 29.497797,7.542004 26.927982,7.0229407 23.836454,7.0229159 z M 23.254357,26.840673 c -1.047427,6e-6 -2.0107,0.31018 -2.751732,0.820227 -0.72939,0.502031 -1.164205,1.162531 -1.164194,1.878586 -9e-6,0.69993 0.442089,1.381576 1.164194,1.878586 l 0,0.02646 c 0.743473,0.496682 1.711392,0.767309 2.751732,0.76731 1.0285,-10e-7 2.011835,-0.273034 2.751731,-0.76731 0.741286,-0.495225 1.190634,-1.200038 1.190653,-1.905045 -1.7e-5,-0.720922 -0.44198,-1.404878 -1.190653,-1.905045 -0.737507,-0.507604 -1.715992,-0.793766 -2.751731,-0.793768 z" id="H" fill="url(#C)"/>
 </g>
 <path d="m 7.3125,3.043459 c -1.3131898,0 -2.40625,1.2649065 -2.40625,2.90625 l 0,16.40625 c 11.797217,-4.056015 24.753047,-6.873958 38.1875,-9.1875 l 0,-7.21875 c 0,-1.6303774 -1.155564,-2.90625 -2.46875,-2.90625 l -33.3125,0 0,0 z" id="5" opacity="0.6" fill="url(#D)" display="block"/>
</svg>
